<svg width="1024" height="1024" viewBox="0 0 1024 1024" fill="none"
    xmlns="http://www.w3.org/2000/svg">
    <g clip-path="url(#clip0)">
        <rect width="1024" height="1024" fill="#F5F5F7"/>
        <path d="M855 -1V1024" stroke="#DDDDE1" stroke-width="6"/>
        <path d="M684 -1V1024" stroke="#DDDDE1" stroke-width="6"/>
        <path d="M513 -1V1024" stroke="#DDDDE1" stroke-width="6"/>
        <path d="M342 -1V1024" stroke="#DDDDE1" stroke-width="6"/>
        <path d="M171 -1V1024" stroke="#DDDDE1" stroke-width="6"/>
        <path d="M1024 854L-1 854" stroke="#DDDDE1" stroke-width="6"/>
        <path d="M1024 683L-1 683" stroke="#DDDDE1" stroke-width="6"/>
        <path d="M1024 512L-1 512" stroke="#DDDDE1" stroke-width="6"/>
        <path d="M1024 341L-1 341" stroke="#DDDDE1" stroke-width="6"/>
        <path d="M1024 170L-1 170" stroke="#DDDDE1" stroke-width="6"/>
        <circle cx="512" cy="511" r="337" stroke="#CFCFD5" stroke-width="12"/>
        <circle cx="512" cy="512" r="166" stroke="#CFCFD5" stroke-width="12"/>
        <circle cx="512" cy="512" r="438" stroke="#CFCFD5" stroke-width="12"/>
        <rect width="1024" height="1024" fill="#21D23E"/>
        <path d="M604.016 678.75H416.125L383.312 785H236.828L445.422 216.25H574.328L784.484 785H637.219L604.016 678.75ZM448.938 572.891H571.203L509.875 375.625L448.938 572.891Z" fill="white"/>
        <circle cx="-137" cy="-126" r="1101" fill="white" fill-opacity="0.2"/>
        <mask id="mask0" mask-type="alpha" maskUnits="userSpaceOnUse" x="0" y="0" width="1024" height="1024">
            <rect width="1024" height="1024" fill="#21D23E"/>
        </mask>
        <g mask="url(#mask0)">
        </g>
    </g>
    <defs>
        <clipPath id="clip0">
            <rect width="1024" height="1024" fill="white"/>
        </clipPath>
    </defs>
</svg>
